# xmcd CD database file
#
# Track frame offsets:
#	150
#	21982
#	35507
#	55623
#	74604
#	95592
#	118361
#	134892
#	152518
#	172173
#	190790
#	209966
#	238629
#	260199
#	280519
#	299868
#	317941
#	332221
#
# Disc length: 4717 seconds
#
# Revision: 10
# Processed by: cddbd v1.5.2PL0 Copyright (c) Steve Scherf et al.
# Submitted via: CDex 1.51
#
DISCID=33126b12
DTITLE=Sting and The Police - The Very Best Of Sting and The Police
DYEAR=2002
DGENRE=Power Ballad
TTITLE0=The Police - Message In A Bottle
TTITLE1=The Police - Can't Stand Losing You
TTITLE2=Sting - Englishman In New York
TTITLE3=The Police - Every Breath You Take
TTITLE4=Sting - Seven Days
TTITLE5=The Police - Walking On The Moon
TTITLE6=Sting - Fields Of Gold
TTITLE7=Sting - Fragile
TTITLE8=The Police - Every Little Thing She Does Is Magic
TTITLE9=The Police - De Do Do Do, De Da Da Da
TTITLE10=Sting - If You Love Somebody Set Them Free
TTITLE11=Sting - Brand New Day
TTITLE12=Sting - Desert Rose
TTITLE13=Sting - If I Ever Lose My Faith In You
TTITLE14=Sting - When We Dance
TTITLE15=The Police - Don't Stand So Close To Me
TTITLE16=The Police - Roxanne
TTITLE17=The Police - So Lonely
EXTD=YEAR: 2002
EXTT0=
EXTT1=
EXTT2=
EXTT3=
EXTT4=
EXTT5=
EXTT6=
EXTT7=
EXTT8=
EXTT9=
EXTT10=
EXTT11=
EXTT12=
EXTT13=
EXTT14=
EXTT15=
EXTT16=
EXTT17=
PLAYORDER=
